<svg xmlns="http://www.w3.org/2000/svg" width="200" height="200" viewBox="0 0 200 200">
  <path fill="#3F4A5A" d="M107.573 0H92.419l-4.425 22.073h24.009M56.581 9.593L43.44 17.17l7.204 21.367 20.798-12.054M17.196 43.436L9.624 56.553l16.893 14.873 12.021-20.794M.005 92.417l.011 15.166 22.078 4.426V88m-12.47 55.44l7.572 13.115 21.342-7.194-12.021-20.78m16.923 54.235l13.141 7.565L71.442 173.5l-20.798-12.043M92.419 200h15.154l4.43-22.079H87.999m55.441 12.46l13.126-7.565-7.203-21.359L128.57 173.5m54.243-16.945l7.578-13.115-16.902-14.859-12.008 20.78m38.514-41.778V92.417L177.929 88v24.009m12.462-55.456l-7.578-13.103-21.332 7.182 12.008 20.794M156.566 17.17l-13.15-7.555-14.846 16.868 20.793 12.054"/>
  <path fill="#333C49" d="M99.994 21.177c-43.53 0-78.829 35.269-78.829 78.821 0 43.549 35.299 78.821 78.829 78.821 43.564 0 78.853-35.271 78.853-78.821 0-43.552-35.289-78.821-78.853-78.821z"/>
  <path fill="#FFF" d="M159.992 100.001c0 33.133-26.864 59.998-59.996 59.998-33.133 0-59.996-26.864-59.996-59.998s26.864-59.997 59.997-59.997c33.131 0 59.995 26.864 59.995 59.997z"/>
  <path fill="#F67656" d="M99.997 111.144c-2.975 0-5.774-1.155-7.88-3.261-4.342-4.35-4.342-11.417 0-15.763 2.106-2.101 4.904-3.262 7.88-3.262 2.975 0 5.775 1.161 7.875 3.262 2.109 2.108 3.268 4.907 3.268 7.882s-1.158 5.775-3.268 7.877c-2.101 2.109-4.9 3.265-7.875 3.265zm0-17.141c-1.604 0-3.11.625-4.243 1.754-2.341 2.339-2.341 6.149 0 8.489 2.268 2.266 6.219 2.263 8.485 0 1.133-1.136 1.758-2.643 1.758-4.245 0-1.602-.625-3.108-1.758-4.245-1.134-1.128-2.64-1.753-4.242-1.753z"/>
  <path fill="#3F4A5A" d="M101.813 101.818c-1.001 1.002-2.634 1.002-3.635 0-1.002-1.003-1.002-2.634 0-3.636 1.001-1 2.633-1 3.635 0 1.006 1.003 1.006 2.633 0 3.636z"/>
  <path fill="#F67656" d="M118.7932061 77.5789511l3.6331447 3.6372575-14.5525675 14.5361123-3.6331447-3.6372575z"/>
  <path fill="#D9D8D7" d="M102.137 48.627v12.866c9.039.497 17.244 4.103 23.572 9.769l9.101-9.103c-8.666-7.978-20.087-13.014-32.673-13.532z"/>
  <path fill="#90DEA9" d="M138.504 102.144c-.493 9.035-4.104 17.242-9.768 23.57l9.101 9.101c7.979-8.668 13.015-20.084 13.53-32.671h-12.863z"/>
  <path fill="#D9D8D7" d="M61.49 102.144H48.624c.516 12.584 5.552 24.003 13.531 32.671l9.1-9.101c-5.664-6.328-9.271-14.535-9.765-23.57zm12.795-30.883c6.328-5.666 14.534-9.272 23.57-9.769V48.627c-12.587.518-24.002 5.554-32.671 13.532l9.101 9.102zM61.49 97.856c.495-9.033 4.101-17.239 9.765-23.566l-9.1-9.104c-7.979 8.672-13.016 20.087-13.531 32.671H61.49z"/>
  <path fill="#FAD97F" d="M128.739 74.293c5.661 6.324 9.271 14.53 9.765 23.566h12.863c-.516-12.587-5.546-24.001-13.53-32.671l-9.098 9.105z"/>
</svg>
