<svg class="svg" xmlns="http://www.w3.org/2000/svg" viewBox="0 0 200 200">
  <path fill="#E6EAEE" d="M100.333 200l-49.32-28.477V114.57l49.32 28.477"/>
  <path fill="#CDD3DA" d="M100.333 86.094l-49.32 28.476 49.32 28.477 49.324-28.477"/>
  <path fill="#AAB5BD" d="M100.333 200l49.32-28.477V114.57l-49.32 28.477"/>
  <g>
    <path fill="#faebd7" d="M149.652 114.57l-49.32-28.476V29.14l49.32 28.477"/>
    <path fill="#34495E" d="M149.652.665l-49.32 28.476 49.32 28.477 49.323-28.476"/>
    <path fill="#4BD6C0" d="M149.652 114.57l49.323-28.476V29.14l-49.323 28.477"/>
  </g>
  <g>
    <g fill="#34495E">
      <path d="M51.012 115.234c-.116 0-.23-.03-.333-.09L1.355 86.667c-.205-.12-.33-.338-.33-.575V29.14c0-.237.125-.455.33-.574.205-.12.46-.12.666 0L51.345 57.04c.205.122.332.34.332.578v56.953c0 .237-.126.457-.332.574-.104.06-.22.09-.333.09zM2.354 85.71l47.995 27.71V58L2.353 30.29v55.42z"/>
      <path d="M51.014 58.28c-.115 0-.23-.03-.33-.088L1.355 29.716c-.205-.117-.33-.335-.33-.575 0-.237.125-.455.33-.574L50.683.088c.203-.117.46-.117.664 0l49.32 28.478c.207.12.33.337.33.575 0 .24-.123.46-.33.576l-49.32 28.476c-.104.06-.218.09-.333.09zM3.018 29.14l47.996 27.71 47.99-27.71-47.99-27.707L3.018 29.14zM100.333 86.758c-.112 0-.23-.03-.333-.09l-3.45-1.993c-.32-.183-.43-.59-.243-.906.18-.32.588-.43.906-.245l3.45 1.992c.323.184.43.59.245.908-.123.214-.346.333-.575.333zM90.82 81.267c-.113 0-.225-.03-.33-.09l-6.06-3.498c-.32-.185-.43-.592-.242-.91.182-.32.588-.423.906-.24l6.06 3.496c.317.182.425.59.24.906-.123.214-.343.335-.574.335zm-12.118-7c-.112 0-.227-.026-.333-.087l-6.06-3.5c-.317-.183-.425-.59-.243-.907.183-.32.59-.428.906-.244l6.06 3.498c.32.184.428.588.244.906-.12.216-.346.333-.575.333zm-12.12-6.996c-.112 0-.228-.025-.332-.086l-6.058-3.5c-.32-.183-.43-.59-.244-.91.184-.315.587-.425.908-.245l6.058 3.502c.318.184.428.59.244.906-.12.216-.346.333-.575.333z"/>
      <path d="M54.462 60.273c-.11 0-.225-.028-.333-.09l-3.118-1.802-3.122 1.804c-.316.184-.724.076-.908-.244-.18-.318-.072-.722.244-.908l3.453-1.992c.204-.117.458-.117.665 0l3.45 1.992c.32.186.427.59.245.908-.125.215-.347.333-.578.333zM11.2 81.267c-.227 0-.452-.12-.575-.335-.184-.316-.074-.724.244-.906l6.06-3.497c.316-.185.724-.08.906.24.184.317.076.725-.242.91l-6.06 3.498c-.105.06-.222.09-.334.09zm12.12-6.998c-.228 0-.453-.12-.576-.334-.182-.316-.072-.724.244-.908l6.06-3.5c.315-.184.727-.076.907.246.186.316.074.722-.242.908l-6.06 3.497c-.106.06-.22.09-.334.09zm12.12-7c-.228 0-.453-.116-.576-.332-.184-.316-.074-.722.242-.906l6.063-3.503c.312-.18.72-.073.905.245.184.32.074.726-.242.908l-6.063 3.5c-.102.062-.217.088-.33.088zM1.69 86.758c-.23 0-.453-.12-.574-.333-.186-.318-.078-.724.24-.908l3.454-1.992c.316-.184.724-.076.908.244.18.315.072.723-.244.905L2.02 86.67c-.106.058-.217.088-.33.088zM51.012 115.234c-.116 0-.23-.03-.333-.09-.206-.118-.332-.338-.332-.574V57.617c0-.238.126-.456.33-.577L100 28.566c.205-.12.46-.12.664 0 .21.12.333.337.333.575v56.954c0 .236-.123.456-.333.575l-49.32 28.474c-.103.06-.22.09-.332.09zM51.676 58v55.42l47.99-27.71V30.293L51.677 58z"/>
      <g>
        <path d="M51.014 5.314c-.368 0-.664-.295-.664-.666V.665c0-.367.296-.665.664-.665.37 0 .664.297.664.664v3.984c0 .37-.296.666-.664.666zM51.012 47.295c-.37 0-.664-.295-.664-.664v-6.995c0-.367.297-.664.664-.664.37 0 .664.298.664.665v6.996c0 .372-.3.665-.664.665zm0-13.99c-.367 0-.664-.298-.664-.663v-6.998c0-.37.297-.664.664-.664.37 0 .664.294.664.664v6.998c0 .364-.294.662-.664.662zm.002-13.995c-.368 0-.664-.3-.664-.664v-7c0-.366.296-.664.664-.664.37 0 .664.298.664.664v7c0 .365-.296.664-.664.664zM51.012 58.28c-.37 0-.664-.294-.664-.663V53.63c0-.368.295-.665.664-.665.364 0 .664.297.664.666v3.987c0 .37-.3.664-.664.664z"/>
      </g>
    </g>
  </g>
</svg>
