<?xml version="1.0" encoding="utf-8"?>
<!-- Generated by IcoMoon.io -->
<!DOCTYPE svg PUBLIC "-//W3C//DTD SVG 1.1//EN" "http://www.w3.org/Graphics/SVG/1.1/DTD/svg11.dtd">
<svg version="1.1" xmlns="http://www.w3.org/2000/svg" xmlns:xlink="http://www.w3.org/1999/xlink" width="480" height="448" viewBox="0 0 480 448"><g id="icomoon-ignore">
</g>
<path d="M325.688 98.25l12.5-12.5q2.5-2.5 5.75-2.5t5.75 2.5l116.5 116.5q2.5 2.5 2.5 5.75t-2.5 5.75l-116.5 116.5q-2.5 2.5-5.75 2.5t-5.75-2.5l-12.5-12.5q-2.5-2.5-2.5-5.75t2.5-5.75l98.25-98.25-98.25-98.25q-2.5-2.5-2.5-5.75t2.5-5.75zM177.937 365l93.25-322.75q1-3.25 3.875-4.875t5.875-0.625l15.5 4.25q3.25 1 4.875 3.875t0.625 6.125l-93.25 322.75q-1 3.25-3.875 4.875t-5.875 0.625l-15.5-4.25q-3.25-1-4.875-3.875t-0.625-6.125zM13.688 202.25l116.5-116.5q2.5-2.5 5.75-2.5t5.75 2.5l12.5 12.5q2.5 2.5 2.5 5.75t-2.5 5.75l-98.25 98.25 98.25 98.25q2.5 2.5 2.5 5.75t-2.5 5.75l-12.5 12.5q-2.5 2.5-5.75 2.5t-5.75-2.5l-116.5-116.5q-2.5-2.5-2.5-5.75t2.5-5.75z"></path>
</svg>
