<svg xmlns="http://www.w3.org/2000/svg" width="197" height="150" viewBox="0 0 197 150">
  <path fill="#fff" d="M16.406 121.875c1.294 0 2.344-1.05 2.344-2.344V9.375c0-2.803 1.884-4.688 4.688-4.688h150c2.672 0 4.688 2.194 4.688 5.105v109.739c0 1.294 1.05 2.344 2.344 2.344s2.344-1.05 2.344-2.344V9.792c0-5.494-4.116-9.792-9.375-9.792h-150c-5.433 0-9.375 3.942-9.375 9.375v110.156c0 1.294 1.05 2.344 2.344 2.344zM30.469 14.063c-1.294 0-2.344 1.05-2.344 2.344v103.125c0 1.294 1.05 2.344 2.344 2.344h135.938c1.294 0 2.344-1.05 2.344-2.344V16.407c0-1.294-1.05-2.344-2.344-2.344H30.469zm133.594 103.125H32.813V18.75h131.25v98.438zm30.468 14.062H2.343c-1.294 0-2.344 1.05-2.344 2.344v5.508c0 5.616 6.6 10.898 11.719 10.898h173.438c5.367 0 11.719-6.352 11.719-11.719v-4.688c0-1.294-1.05-2.344-2.344-2.344zm-2.343 7.031c0 2.761-4.27 7.031-7.031 7.031H11.719c-2.958 0-7.031-3.6-7.031-6.211v-3.164h187.5v2.344z"/>
</svg>
