<svg xmlns="http://www.w3.org/2000/svg" width="1152" height="1024" viewBox="0 0 1152 1024">
  <path d="M102.041 191.026c-26.257 26.287-20.645 63.301.249 84.165.837.806 84.754 80.972 202.771 198.989 3.038 3.038 7.006 4.526 10.974 4.526s7.936-1.519 10.974-4.526c6.045-6.045 6.045-15.871 0-21.916-17.794-17.794-34.72-34.627-50.778-50.561l49.259-49.259c6.045-6.045 6.045-15.871 0-21.916s-15.871-6.045-21.918 0l-49.383 49.383c-27.621-27.281-51.956-51.089-71.765-70.401l112.065-112.065c6.045-6.045 6.045-15.871 0-21.916s-15.871-6.045-21.918 0L160.165 287.935c-22.816-22.103-35.96-34.658-36.177-34.875-6.541-6.541-15.128-24.955 0-40.083l155-155c5.983-6.076 21.918-18.135 39.401-.744.775.868 79.05 89.777 198.524 209.25 6.045 6.045 15.871 6.045 21.918 0s6.045-15.871 0-21.916C420.101 125.868 342.415 37.642 340.989 36.03c-28.892-28.829-63.737-20.181-83.917 0l-155.031 155zm657.448 573.5c-6.045-6.045-15.871-6.045-21.916 0l-49.321 49.29c-15.035-15.221-30.814-31.155-47.43-47.771-6.045-6.045-15.874-6.045-21.918 0s-6.045 15.871 0 21.916C733.727 902.754 813.925 988.5 815.072 989.74c10.633 10.664 25.203 16.523 41.013 16.523 16.275 0 32.736-6.355 42.935-16.585l154.937-156.767c19.499-19.499 20.615-52.576 2.418-70.835L848.489 554.222c-6.045-6.045-15.871-6.045-21.916 0s-6.045 15.871 0 21.916l207.886 207.854c6.2 6.2 5.022 19.592-2.449 27.063L877.041 967.822c-3.565 3.596-11.656 7.441-20.956 7.441-5.332 0-12.958-1.302-18.724-7.099-.31-.341-13.299-14.198-35.836-37.789l112.964-112.964c6.045-6.045 6.045-15.871 0-21.916s-15.871-6.045-21.916 0L780.074 907.994c-19.345-20.119-43.059-44.578-70.06-72.106l49.476-49.476c6.045-6.014 6.045-15.81 0-21.886zM86.417 1002.699c2.976 3.038 6.975 4.65 11.098 4.65 1.487 0 2.976-.217 4.433-.651l309.999-92.349c2.511-.744 4.743-2.077 6.572-3.937l529.79-533.356c.744-.744 1.116-1.705 1.674-2.542l113.336-113.336c9.114-9.145 14.167-21.266 14.167-34.193 0-12.896-5.053-25.017-14.167-34.1L901.034 30.632c-18.228-18.228-50.065-18.228-68.293 0L716.832 146.541c-.744.744-1.147 1.705-1.705 2.573L184.531 679.741c-1.736 1.736-3.038 3.844-3.783 6.169l-97.96 301.165c-1.798 5.487-.403 11.47 3.627 15.624zm642.258-823.298l32.209 32.209-481.213 482.515-53.537-12.152 502.541-502.572zm-429.66 539.245l483.817-485.088 75.516 75.516L370.16 791h-71.146v-72.354zm616.404-352.47L411.855 873.15l-17.886-62.062 486.297-480.097 35.154 35.185zM205.798 709.129l62.217 14.136V806.5c0 8.556 6.944 15.5 15.5 15.5h81.344l19.654 68.2-263.128 78.399 84.413-259.47zM854.69 52.55c6.541-6.541 17.917-6.541 24.459 0l162.285 162.285c3.255 3.255 5.053 7.595 5.053 12.214 0 4.588-1.798 8.959-5.084 12.245L936.902 343.826 750.189 157.113 854.69 52.55z"/>
</svg>
